<mxfile host="65bd71144e">
    <diagram id="BchvI7WIYb1rJNrYavdt" name="第1頁">
        <mxGraphModel dx="1130" dy="536" grid="1" gridSize="10" guides="1" tooltips="1" connect="1" arrows="1" fold="1" page="1" pageScale="1" pageWidth="827" pageHeight="1169" math="0" shadow="0">
            <root>
                <mxCell id="0"/>
                <mxCell id="1" parent="0"/>
                <mxCell id="26" value="" style="group" vertex="1" connectable="0" parent="1">
                    <mxGeometry x="210" y="140" width="370" height="280" as="geometry"/>
                </mxCell>
                <mxCell id="10" value="利害關係人&lt;br&gt;(參與者)" style="swimlane;fontStyle=0;align=center;verticalAlign=top;childLayout=stackLayout;horizontal=1;startSize=40;horizontalStack=0;resizeParent=1;resizeParentMax=0;resizeLast=0;collapsible=0;marginBottom=0;html=1;" vertex="1" parent="26">
                    <mxGeometry width="140" height="220" as="geometry"/>
                </mxCell>
                <mxCell id="17" value="郵差或貨運公司" style="whiteSpace=wrap;html=1;" vertex="1" parent="10">
                    <mxGeometry y="40" width="140" height="60" as="geometry"/>
                </mxCell>
                <mxCell id="19" value="警衛" style="whiteSpace=wrap;html=1;" vertex="1" parent="10">
                    <mxGeometry y="100" width="140" height="60" as="geometry"/>
                </mxCell>
                <mxCell id="20" value="主任委員、各項委員" style="whiteSpace=wrap;html=1;" vertex="1" parent="10">
                    <mxGeometry y="160" width="140" height="60" as="geometry"/>
                </mxCell>
                <mxCell id="15" value="&lt;div style=&quot;&quot;&gt;&lt;span style=&quot;background-color: initial;&quot;&gt;目標&lt;/span&gt;&lt;/div&gt;" style="swimlane;fontStyle=0;align=center;verticalAlign=top;childLayout=stackLayout;horizontal=1;startSize=40;horizontalStack=0;resizeParent=1;resizeParentMax=0;resizeLast=0;collapsible=0;marginBottom=0;html=1;" vertex="1" parent="26">
                    <mxGeometry x="140" width="230" height="100" as="geometry"/>
                </mxCell>
                <mxCell id="22" value="&lt;div style=&quot;&quot;&gt;&lt;span style=&quot;background-color: initial;&quot;&gt;&lt;span style=&quot;white-space: pre;&quot;&gt;&#9;&lt;/span&gt;信件/包裹收發任務&lt;/span&gt;&lt;/div&gt;" style="whiteSpace=wrap;html=1;align=left;" vertex="1" parent="15">
                    <mxGeometry y="40" width="230" height="60" as="geometry"/>
                </mxCell>
                <mxCell id="21" value="住戶" style="whiteSpace=wrap;html=1;" vertex="1" parent="26">
                    <mxGeometry y="220" width="140" height="60" as="geometry"/>
                </mxCell>
                <mxCell id="23" value="&lt;ul&gt;&lt;li&gt;簽收包裹&lt;/li&gt;&lt;li&gt;確認住戶姓名&lt;/li&gt;&lt;/ul&gt;" style="whiteSpace=wrap;html=1;glass=0;rounded=0;align=left;" vertex="1" parent="26">
                    <mxGeometry x="140" y="100" width="230" height="60" as="geometry"/>
                </mxCell>
                <mxCell id="24" value="&lt;ul&gt;&lt;li&gt;發起「公告」&lt;/li&gt;&lt;li&gt;新增、修改與刪除公告&lt;/li&gt;&lt;/ul&gt;" style="whiteSpace=wrap;html=1;align=left;" vertex="1" parent="26">
                    <mxGeometry x="140" y="160" width="230" height="60" as="geometry"/>
                </mxCell>
                <mxCell id="25" value="&lt;span style=&quot;white-space: pre;&quot;&gt;&#9;&lt;/span&gt;對公告進行回應&lt;span style=&quot;white-space: pre;&quot;&gt;&#9;&lt;/span&gt;&lt;span style=&quot;white-space: pre;&quot;&gt;&#9;&lt;/span&gt;" style="whiteSpace=wrap;html=1;align=left;" vertex="1" parent="26">
                    <mxGeometry x="140" y="220" width="230" height="60" as="geometry"/>
                </mxCell>
            </root>
        </mxGraphModel>
    </diagram>
</mxfile>